<svg xmlns="http://www.w3.org/2000/svg" width="18" height="18" fill="none"><path fill="#fff" d="m9.006 10.872-6.53 6.536c-.245.244-.556.367-.934.367s-.689-.122-.934-.366c-.244-.245-.366-.556-.367-.934 0-.378.122-.689.367-.933l6.53-6.536-6.535-6.53C.36 2.23.236 1.92.236 1.541S.358.853.603.608c.244-.244.555-.366.933-.367.378 0 .689.122.933.367l6.536 6.53L15.536.604c.244-.244.555-.367.933-.367s.69.122.934.367c.244.244.367.555.367.933s-.122.689-.367.933l-6.53 6.536 6.535 6.531c.244.244.367.555.367.933s-.122.69-.367.934c-.244.244-.555.367-.933.367s-.689-.122-.933-.367l-6.536-6.53Z"/></svg>